<?xml version="1.0"?><svg xmlns="http://www.w3.org/2000/svg" id="Layer_2" data-name="Layer 2" viewBox="0 0 64 64"><path d="M62.03,41.57h-.06c.02-.38,.03-.76,0-1.14h.05c.54-.1,.91-.62,.82-1.16-.09-.54-.61-.92-1.15-.82h-.06c-.08-.26-.17-.52-.27-.78-.04-.09-.09-.18-.13-.27l.06-.03c.48-.28,.64-.89,.36-1.37-.28-.48-.89-.64-1.37-.36l-.05,.03c-.22-.3-.46-.59-.72-.86l.04-.05c.36-.42,.3-1.05-.12-1.41-.42-.36-1.05-.3-1.41,.12l-.04,.05c-.32-.21-.65-.39-.99-.56l.02-.07c.19-.52-.07-1.09-.59-1.28-.52-.19-1.09,.07-1.28,.59l-.03,.07c-.37-.09-.74-.16-1.12-.2v-.06c0-.55-.45-1-1-1s-1,.45-1,1v.06c-.37,.04-.75,.11-1.12,.2l-.03-.07c-.11-.29-.34-.49-.6-.58l-.46-1.13c1.02-.31,2.09-.48,3.21-.48,2.93,0,5.69,1.14,7.76,3.21,0,0,0,0,0,0,0,0,0,0,0,0,0,0,0,0,0,0,.39,.37,1.01,.37,1.4-.01,.34-.34,.36-.85,.12-1.23,0,0,0-.02,0-.02-2.38-4.29-6.89-6.95-11.8-6.95-.94,0-1.88,.1-2.82,.3l-.64-1.56,2.28-.79c.28-.1,.5-.31,.61-.59,.1-.28,.08-.59-.07-.85l-4-7c-.24-.41-.73-.6-1.18-.45l-1.39,.46-.36-.89c-.15-.38-.52-.62-.93-.62h-4c-.55,0-1,.45-1,1s.45,1,1,1h3.33l1.37,3.35c-2.1,.09-4.56,.59-4.9,.67-1.12,.23-1.94,1.3-2.53,2.55-2.76,1.25-8.1,3.48-16.12,2.09l-.51-.42c-.15-.12-.32-.2-.51-.22l-15-2c-.54-.07-1.05,.31-1.12,.86-.07,.55,.31,1.05,.86,1.12l3.69,.49,2.6,4.06c.12,.18,.29,.33,.5,.4l10.75,3.91,1.84,2.14-3.32,1.28c-.13-.16-.27-.31-.41-.46l.04-.05c.36-.42,.3-1.05-.12-1.41-.42-.36-1.05-.3-1.41,.12l-.04,.05c-.32-.21-.65-.4-.99-.56l.02-.07c.19-.52-.07-1.09-.59-1.28-.52-.19-1.09,.07-1.28,.59l-.03,.07c-.37-.09-.74-.16-1.12-.2v-.06c0-.55-.45-1-1-1s-1,.45-1,1v.07c-.37,.04-.75,.11-1.12,.2l-.03-.07c-.19-.52-.77-.78-1.28-.59-.52,.19-.78,.77-.59,1.28l.02,.06c-.34,.17-.68,.36-.99,.57l-.03-.04c-.35-.42-.98-.48-1.41-.13-.42,.35-.48,.98-.13,1.41l.05,.05c-.26,.27-.5,.56-.72,.86l-.06-.03c-.48-.28-1.09-.11-1.37,.37-.27,.48-.11,1.09,.37,1.37l.05,.03c-.15,.35-.28,.71-.38,1.07h-.07c-.55-.11-1.06,.26-1.15,.8-.09,.54,.27,1.06,.82,1.15h.06c-.02,.38-.03,.76,0,1.14h-.05c-.54,.1-.91,.62-.82,1.16,.08,.49,.51,.83,.98,.83,.06,0,.11,0,.17-.01h.06c.08,.26,.17,.52,.27,.78,.04,.09,.09,.18,.13,.27l-.06,.04c-.48,.28-.64,.89-.36,1.37,.19,.32,.52,.5,.87,.5,.17,0,.34-.04,.5-.14l.06-.04c.22,.3,.47,.59,.72,.86l-.05,.06c-.36,.42-.3,1.05,.12,1.41,.19,.16,.42,.24,.64,.24,.28,0,.57-.12,.76-.35l.04-.05c.32,.21,.65,.39,.99,.56l-.02,.07c-.19,.52,.07,1.09,.59,1.28,.11,.04,.23,.06,.35,.06,.41,0,.79-.25,.94-.65l.03-.08c.37,.09,.73,.16,1.11,.2v.08c0,.55,.45,1,1,1s1-.45,1-1v-.06c.37-.04,.75-.11,1.12-.2l.02,.07c.15,.4,.53,.65,.94,.65,.11,0,.23-.02,.35-.06,.52-.19,.78-.77,.59-1.28l-.02-.06c.34-.17,.68-.36,.99-.57l.03,.04c.2,.24,.48,.36,.77,.36,.23,0,.45-.08,.64-.23,.42-.35,.48-.98,.13-1.41l-.05-.05c.26-.27,.5-.56,.72-.86l.06,.03c.16,.09,.33,.13,.5,.13,.35,0,.68-.18,.87-.5,.27-.48,.11-1.09-.37-1.37l-.05-.03c.09-.2,.16-.4,.23-.6h2.91c.7,.61,1.61,1,2.62,1,1.25,0,2.35-.59,3.09-1.49l9.43-5.11s.01-.02,.02-.03c.27-.16,.48-.44,.5-.78,0-.13,.02-.26,.04-.4,.5-4.34,3.38-7.98,7.43-9.47l.68,1.66c-3.62,1.8-6.29,5.24-7,9.46-.09,.54,.28,1.06,.82,1.15,.06,0,.11,.01,.17,.01,.48,0,.9-.35,.99-.83,.59-3.52,2.8-6.39,5.78-7.93l.76,1.87c-.24,.13-.47,.26-.69,.41l-.03-.04c-.35-.42-.98-.48-1.41-.13-.42,.35-.48,.98-.13,1.41l.05,.05c-.26,.27-.5,.56-.72,.86l-.06-.03c-.48-.28-1.09-.11-1.37,.37-.27,.48-.11,1.09,.37,1.37l.05,.03c-.15,.35-.28,.71-.38,1.07h-.07c-.55-.11-1.06,.26-1.15,.8-.09,.54,.27,1.06,.82,1.15h.06c-.02,.38-.03,.76,0,1.14h-.05c-.54,.1-.91,.62-.82,1.16,.08,.49,.51,.83,.98,.83,.06,0,.11,0,.17-.01h.06c.08,.26,.17,.52,.27,.78,.04,.09,.09,.18,.13,.27l-.06,.04c-.48,.28-.64,.89-.36,1.37,.19,.32,.52,.5,.87,.5,.17,0,.34-.04,.5-.14l.06-.04c.22,.3,.47,.59,.72,.86l-.05,.06c-.36,.42-.3,1.05,.12,1.41,.19,.16,.42,.24,.64,.24,.28,0,.57-.12,.76-.35l.04-.05c.32,.21,.65,.39,.99,.56l-.02,.07c-.19,.52,.07,1.09,.59,1.28,.11,.04,.23,.06,.35,.06,.41,0,.79-.25,.94-.65l.03-.08c.37,.09,.73,.16,1.11,.2v.08c0,.55,.45,1,1,1s1-.45,1-1v-.06c.37-.04,.75-.11,1.12-.2l.02,.07c.15,.4,.53,.65,.94,.65,.11,0,.23-.02,.35-.06,.52-.19,.78-.77,.59-1.28l-.02-.06c.34-.17,.68-.36,.99-.57l.03,.04c.2,.24,.48,.36,.77,.36,.23,0,.45-.08,.64-.23,.42-.35,.48-.98,.13-1.41l-.05-.05c.26-.27,.5-.56,.72-.86l.06,.03c.16,.09,.33,.13,.5,.13,.35,0,.68-.18,.87-.5,.27-.48,.11-1.09-.37-1.37l-.05-.03c.15-.35,.28-.71,.38-1.07h.07c.06,.02,.11,.03,.17,.03,.48,0,.9-.34,.98-.83,.09-.54-.27-1.06-.82-1.15Zm-17.49-25.37l3,5.24-1.24,.43-2.25-5.51,.49-.16Zm-20.37,9.9c4.09,0,7.39-.89,10.21-2.01-.11,.44-.2,.85-.27,1.19-1.35,.52-4.52,1.38-8.73,2.36-.71,.17-1.44,0-2-.48l-1.39-1.16c.75,.06,1.48,.09,2.18,.09Zm.8,11.04c-1.71,.46-2.97,2-2.97,3.85,0,.35,.06,.68,.14,1h-.46c-.15-.22-.38-.38-.65-.43h-.06c.02-.38,.03-.76,0-1.14h.05c.54-.1,.91-.62,.82-1.16-.09-.54-.61-.92-1.15-.82h-.06c-.08-.26-.17-.52-.27-.78-.04-.09-.09-.18-.13-.27l.06-.03c.26-.15,.41-.39,.47-.66l2.87-1.11,1.34,1.56Zm-13.97,3.85c0-.55,.45-1,1-1,0,0,0,0,0,0,0,0,0,0,0,0,.55,0,1,.45,1,1s-.45,1-1,1-1-.45-1-1Zm3.36-1.84l3.8-1.46c.12,.23,.25,.46,.35,.71,.47,1.18,.59,2.41,.42,3.59h-4.1c.11-.31,.18-.65,.18-1,0-.69-.25-1.33-.64-1.84Zm.23,8.34c-3.59,1.43-7.66-.33-9.09-3.91-1.43-3.59,.33-7.67,3.91-9.09,.85-.34,1.72-.5,2.58-.5,1.84,0,3.61,.75,4.92,2.04l-5.16,1.99c-1.54,.13-2.75,1.41-2.75,2.97,0,1.65,1.35,3,3,3h6.31c-.73,1.54-2.02,2.82-3.72,3.5Zm11.41-4.5c-1.1,0-2-.9-2-2s.9-2,2-2,2,.9,2,2-.9,2-2,2Zm3.3-4.25l5.1-.39-4.43,2.4c-.05-.74-.28-1.43-.67-2.01Zm7.91-2.61l-9.83,.76-5.63-6.54c-.11-.13-.26-.23-.42-.29l-10.68-3.88-1.5-2.35,8.42,1.12,4.52,3.76c.79,.66,1.75,1,2.75,1,.33,0,.66-.04,.99-.11,3.58-.83,8.15-1.98,9.61-2.71,.29-.14,.49-.41,.54-.73,.39-2.31,1.42-5.02,2.22-5.19,1.66-.35,3.89-.67,5.3-.64l1.27,3.12s0,0,0,0c0,0,0,0,0,.01l.97,2.38c-4.48,1.68-7.72,5.57-8.54,10.27Zm11.25-8.93c.68-.12,1.36-.2,2.04-.2,1.87,0,3.66,.47,5.26,1.3-.9-.19-1.82-.3-2.76-.3-1.38,0-2.71,.22-3.96,.62l-.58-1.42Zm3.61,14.17c.16,.39,.53,.62,.93,.62,.13,0,.25-.02,.38-.07,.51-.21,.76-.79,.55-1.3l-2.61-6.41c.56-.14,1.12-.21,1.68-.21,2.78,0,5.42,1.67,6.51,4.41,1.43,3.59-.33,7.67-3.91,9.09-3.58,1.43-7.66-.33-9.09-3.91-1.29-3.25,.03-6.9,2.97-8.62l2.61,6.41Z"/></svg>